<svg width="240" height="241" viewBox="0 0 240 241" fill="none" xmlns="http://www.w3.org/2000/svg">
<g clip-path="url(#clip0_2068_687)">
<path d="M131.883 43.6584C131.883 49.6032 130.237 54.2967 126.952 57.7385C124.994 59.7902 122.561 61.2253 119.657 62.054C116.451 62.5354 112.319 62.4085 110.61 62.4084C101.537 62.4084 94.5175 63.5343 87.4775 66.9758C80.594 70.4177 75.1964 75.4257 71.2852 81.9963C67.3743 88.4106 65.417 96.3889 65.417 105.932V112.503H41.9502V135.164H65.417V240.437H47.9971C21.4883 240.436 0.000396242 218.946 0 192.437V48.4368C0 21.9271 21.4903 0.436768 48 0.436768H131.883V43.6584ZM192 0.436768C218.509 0.437558 240 21.9276 240 48.4368V192.437C240 218.946 218.506 240.437 191.997 240.437H91.7021V135.164H120.911V112.503H91.7021V105.932C91.7022 98.5788 93.8149 93.3373 98.0391 90.2083C102.263 86.9236 107.961 85.4446 114.935 85.2805H119.49C119.501 85.3073 119.508 85.3245 119.508 85.3245H131.807L131.883 148.324C131.883 161.935 135.558 172.496 142.91 180.006C150.263 187.515 160.591 191.271 173.889 191.271C175.922 191.271 178.27 191.115 180.929 190.802C183.588 190.489 186.016 190.177 188.206 189.865V167.101C186.799 167.257 185.311 167.413 183.747 167.57C182.184 167.726 180.773 167.804 179.522 167.804C174.517 167.804 170.446 167.021 167.317 165.457C164.189 163.737 161.92 161.389 160.512 158.417C159.104 155.288 158.4 151.533 158.399 147.153V85.5061H187.266V62.9036H158.399V0.436768H192Z" fill="#FAFAFA"/>
</g>
<defs>
<clipPath id="clip0_2068_687">
<rect y="0.436768" width="240" height="240" rx="51" fill="white"/>
</clipPath>
</defs>
</svg>
