<svg width="377" height="56" viewBox="0 0 377 56" fill="none" xmlns="http://www.w3.org/2000/svg">
<path d="M7.33671 54.2941V22.5075H0.18457V15.601H7.33671V13.5984C7.33671 10.6898 7.93273 8.25811 9.12475 6.30319C10.3168 4.30059 11.9618 2.7748 14.0597 1.72582C16.2054 0.676835 18.6609 0.152344 21.4264 0.152344C21.9509 0.152344 22.5469 0.200024 23.2145 0.295385C23.882 0.343068 24.4303 0.41459 24.8595 0.509951V7.51905C24.478 7.42369 24.0489 7.37601 23.5721 7.37601C23.0953 7.32833 22.7138 7.30449 22.4277 7.30449C20.2821 7.30449 18.5656 7.80514 17.2782 8.80644C15.9908 9.76006 15.3471 11.3574 15.3471 13.5984V15.601H24.2487V22.5075H15.3471V54.2941H7.33671Z" fill="#938DEE"/>
<path d="M24.2487 54.2941V15.601H31.9731V23.3968L31.2578 22.2525C32.1161 19.7254 33.4989 17.9135 35.4061 16.8168C37.3133 15.6725 39.602 15.1003 42.2722 15.1003H44.6324V22.467H41.2709C38.6007 22.467 36.4312 23.3015 34.7624 24.9703C33.1412 26.5914 32.3307 28.9278 32.3307 31.9794V54.2941H24.2487Z" fill="#938DEE"/>
<path d="M61.6763 55.1523C57.9571 55.1523 54.5479 54.2702 51.4487 52.5061C48.3971 50.7419 45.9654 48.334 44.1535 45.2824C42.3416 42.2308 41.4357 38.7739 41.4357 34.9118C41.4357 31.0019 42.3416 27.5451 44.1535 24.5412C45.9654 21.4896 48.3971 19.1055 51.4487 17.389C54.5003 15.6248 57.9095 14.7427 61.6763 14.7427C65.4907 14.7427 68.8999 15.6248 71.9038 17.389C74.9554 19.1055 77.3633 21.4896 79.1275 24.5412C80.9394 27.5451 81.8453 31.0019 81.8453 34.9118C81.8453 38.8216 80.9394 42.3023 79.1275 45.3539C77.3156 48.4055 74.8839 50.8134 71.8323 52.5776C68.7807 54.2941 65.3954 55.1523 61.6763 55.1523ZM61.6763 47.6426C63.9649 47.6426 65.9914 47.0943 67.7556 45.9976C69.5198 44.9009 70.9025 43.399 71.9038 41.4917C72.9528 39.5368 73.4773 37.3435 73.4773 34.9118C73.4773 32.48 72.9528 30.3106 71.9038 28.4033C70.9025 26.4961 69.5198 24.9941 67.7556 23.8975C65.9914 22.8008 63.9649 22.2525 61.6763 22.2525C59.4352 22.2525 57.4088 22.8008 55.5969 23.8975C53.8327 24.9941 52.4261 26.4961 51.3772 28.4033C50.3759 30.3106 49.8752 32.48 49.8752 34.9118C49.8752 37.3435 50.3759 39.5368 51.3772 41.4917C52.4261 43.399 53.8327 44.9009 55.5969 45.9976C57.4088 47.0943 59.4352 47.6426 61.6763 47.6426Z" fill="#938DEE"/>
<path d="M82.5834 54.2941V15.601H90.3077V23.1823L89.378 22.181C90.3316 19.7492 91.8574 17.9135 93.9553 16.6738C96.0533 15.3864 98.485 14.7427 101.251 14.7427C104.111 14.7427 106.638 15.3626 108.832 16.6023C111.025 17.842 112.742 19.5585 113.981 21.7518C115.221 23.9451 115.841 26.4722 115.841 29.3331V54.2941H107.83V31.4787C107.83 29.5238 107.473 27.8788 106.758 26.5438C106.042 25.161 105.017 24.112 103.682 23.3968C102.395 22.6339 100.917 22.2525 99.2479 22.2525C97.5791 22.2525 96.0771 22.6339 94.7421 23.3968C93.4547 24.112 92.4534 25.161 91.7382 26.5438C91.0229 27.9265 90.6654 29.5715 90.6654 31.4787V54.2941H82.5834Z" fill="#938DEE"/>
<path d="M134.074 54.7232C130.022 54.7232 126.875 53.5789 124.634 51.2902C122.393 49.0015 121.272 45.783 121.272 41.6348V22.4901H117.548C117.548 22.4901 116.777 20.6333 116.128 19.7982C115.508 19.0006 114.38 17.6906 114.38 17.6906L114.478 15.601H115.55C117.362 15.601 118.769 15.0765 119.77 14.0275C120.771 12.9785 121.272 11.5481 121.272 9.73622V6.73232H129.354V15.601H138.151V22.4901H129.354V41.2772C129.354 42.6122 129.569 43.7566 129.998 44.7102C130.427 45.6161 131.118 46.3314 132.072 46.8559C133.025 47.3327 134.265 47.5711 135.791 47.5711C136.172 47.5711 136.601 47.5472 137.078 47.4995C137.555 47.4519 138.008 47.4042 138.437 47.3565V54.2941C137.77 54.3894 137.031 54.4848 136.22 54.5802C135.409 54.6755 134.694 54.7232 134.074 54.7232Z" fill="#938DEE"/>
<path d="M139.172 54.2941V15.601H147.254V54.2941H139.172ZM139.172 10.3084V1.0106H147.254V10.3084H139.172Z" fill="#938DEE"/>
<path d="M167.717 55.1523C163.855 55.1523 160.422 54.2702 157.418 52.5061C154.462 50.6942 152.15 48.2624 150.481 45.2109C148.812 42.1116 147.977 38.6547 147.977 34.8402C147.977 30.9304 148.812 27.4735 150.481 24.4696C152.197 21.4657 154.486 19.1055 157.347 17.389C160.208 15.6248 163.45 14.7427 167.074 14.7427C169.982 14.7427 172.581 15.2434 174.87 16.2447C177.158 17.246 179.089 18.6287 180.663 20.3929C182.236 22.1094 183.428 24.0882 184.239 26.3292C185.097 28.5702 185.526 30.9543 185.526 33.4813C185.526 34.1012 185.502 34.7449 185.455 35.4124C185.407 36.08 185.312 36.6998 185.169 37.272H154.343V30.835H180.591L176.729 33.7674C177.206 31.4311 177.039 29.3569 176.228 27.5451C175.466 25.6855 174.274 24.2312 172.652 23.1823C171.079 22.0856 169.219 21.5373 167.074 21.5373C164.928 21.5373 163.021 22.0856 161.352 23.1823C159.683 24.2312 158.396 25.757 157.49 27.7596C156.584 29.7145 156.226 32.0986 156.417 34.9118C156.179 37.5342 156.536 39.8229 157.49 41.7778C158.491 43.7328 159.874 45.2585 161.638 46.3552C163.45 47.4519 165.5 48.0002 167.789 48.0002C170.125 48.0002 172.104 47.4757 173.725 46.4267C175.394 45.3777 176.705 44.0188 177.659 42.35L184.239 45.5685C183.476 47.3803 182.284 49.0253 180.663 50.5034C179.089 51.9339 177.182 53.0782 174.941 53.9365C172.748 54.7471 170.34 55.1523 167.717 55.1523Z" fill="#938DEE"/>
<path d="M186.262 54.2941V15.601H193.986V23.3968L193.271 22.2525C194.129 19.7254 195.512 17.9135 197.419 16.8168C199.326 15.6725 201.615 15.1003 204.285 15.1003H206.645V22.467H203.284C200.614 22.467 198.444 23.3015 196.775 24.9703C195.154 26.5914 194.344 28.9278 194.344 31.9794V54.2941H186.262Z" fill="#938DEE"/>
<path d="M222.456 54.7232C218.404 54.7232 215.257 53.5789 213.016 51.2902C210.775 49.0015 209.654 45.783 209.654 41.6348V22.4742H202.86V15.601H203.932C205.744 15.601 207.151 15.0765 208.152 14.0275C209.153 12.9785 209.654 11.5481 209.654 9.73622V6.73232H217.736V15.601H226.533V22.4742H217.736V41.2772C217.736 42.6122 217.951 43.7566 218.38 44.7102C218.809 45.6161 219.5 46.3314 220.454 46.8559C221.407 47.3327 222.647 47.5711 224.173 47.5711C224.554 47.5711 224.984 47.5472 225.46 47.4995C225.937 47.4519 226.39 47.4042 226.819 47.3565V54.2941C226.152 54.3894 225.413 54.4848 224.602 54.5802C223.792 54.6755 223.076 54.7232 222.456 54.7232Z" fill="#938DEE"/>
<path d="M245.523 55.1523C241.804 55.1523 238.394 54.2702 235.295 52.5061C232.244 50.7419 229.812 48.334 228 45.2824C226.188 42.2308 225.282 38.7739 225.282 34.9118C225.282 31.0019 226.188 27.5451 228 24.5412C229.812 21.4896 232.244 19.1055 235.295 17.389C238.347 15.6248 241.756 14.7427 245.523 14.7427C249.337 14.7427 252.746 15.6248 255.75 17.389C258.802 19.1055 261.21 21.4896 262.974 24.5412C264.786 27.5451 265.692 31.0019 265.692 34.9118C265.692 38.8216 264.786 42.3023 262.974 45.3539C261.162 48.4055 258.73 50.8134 255.679 52.5776C252.627 54.2941 249.242 55.1523 245.523 55.1523ZM245.523 47.6426C247.811 47.6426 249.838 47.0943 251.602 45.9976C253.366 44.9009 254.749 43.399 255.75 41.4917C256.799 39.5368 257.324 37.3435 257.324 34.9118C257.324 32.48 256.799 30.3106 255.75 28.4033C254.749 26.4961 253.366 24.9941 251.602 23.8975C249.838 22.8008 247.811 22.2525 245.523 22.2525C243.282 22.2525 241.255 22.8008 239.443 23.8975C237.679 24.9941 236.273 26.4961 235.224 28.4033C234.222 30.3106 233.722 32.48 233.722 34.9118C233.722 37.3435 234.222 39.5368 235.224 41.4917C236.273 43.399 237.679 44.9009 239.443 45.9976C241.255 47.0943 243.282 47.6426 245.523 47.6426Z" fill="#938DEE"/>
<path d="M275.101 54.2941L261.798 15.601H270.38L280.536 46.4267H277.532L287.903 15.601H295.27L305.569 46.4267H302.565L312.793 15.601H321.375L308.001 54.2941H300.705L290.263 22.7531H292.91L282.467 54.2941H275.101Z" fill="#938DEE"/>
<path d="M337.232 55.1523C333.369 55.1523 329.936 54.2702 326.933 52.5061C323.976 50.6942 321.664 48.2624 319.995 45.2109C318.326 42.1116 317.492 38.6547 317.492 34.8402C317.492 30.9304 318.326 27.4735 319.995 24.4696C321.711 21.4657 324 19.1055 326.861 17.389C329.722 15.6248 332.964 14.7427 336.588 14.7427C339.496 14.7427 342.095 15.2434 344.384 16.2447C346.672 17.246 348.604 18.6287 350.177 20.3929C351.75 22.1094 352.943 24.0882 353.753 26.3292C354.611 28.5702 355.04 30.9543 355.04 33.4813C355.04 34.1012 355.017 34.7449 354.969 35.4124C354.921 36.08 354.826 36.6998 354.683 37.272H323.857V30.835H350.105L346.243 33.7674C346.72 31.4311 346.553 29.3569 345.743 27.5451C344.98 25.6855 343.788 24.2312 342.167 23.1823C340.593 22.0856 338.734 21.5373 336.588 21.5373C334.442 21.5373 332.535 22.0856 330.866 23.1823C329.197 24.2312 327.91 25.757 327.004 27.7596C326.098 29.7145 325.741 32.0986 325.931 34.9118C325.693 37.5342 326.05 39.8229 327.004 41.7778C328.005 43.7328 329.388 45.2585 331.152 46.3552C332.964 47.4519 335.014 48.0002 337.303 48.0002C339.64 48.0002 341.618 47.4757 343.239 46.4267C344.908 45.3777 346.22 44.0188 347.173 42.35L353.753 45.5685C352.99 47.3803 351.798 49.0253 350.177 50.5034C348.604 51.9339 346.696 53.0782 344.455 53.9365C342.262 54.7471 339.854 55.1523 337.232 55.1523Z" fill="#938DEE"/>
<path d="M355.776 54.2941V15.601H363.5V23.3968L362.785 22.2525C363.643 19.7254 365.026 17.9135 366.933 16.8168C368.84 15.6725 371.129 15.1003 373.799 15.1003H376.159V22.467H372.798C370.128 22.467 367.958 23.3015 366.289 24.9703C364.668 26.5914 363.858 28.9278 363.858 31.9794V54.2941H355.776Z" fill="#938DEE"/>
</svg>
